<svg xmlns="http://www.w3.org/2000/svg" xml:space="preserve" id="code-collaboration" x="0" y="0" style="enable-background:new 0 0 100 100" version="1.1" viewBox="0 0 100 100">
  <path d="M31,80c0,1.66-1.34,3-3,3h-7.97C18.36,83,17,84.36,17,86.03V90c0,1.66-1.34,3-3,3s-3-1.34-3-3v-3.97
	c0-4.98,4.05-9.03,9.03-9.03H28C29.66,77,31,78.34,31,80z M79.97,77H72c-1.66,0-3,1.34-3,3s1.34,3,3,3h7.97
	c1.67,0,3.03,1.36,3.03,3.03V90c0,1.66,1.34,3,3,3s3-1.34,3-3v-3.97C89,81.05,84.95,77,79.97,77z M55.97,75H44.03
	C37.95,75,33,79.95,33,86.03V92c0,0.55,0.45,1,1,1h32c0.55,0,1-0.45,1-1v-5.97C67,79.95,62.05,75,55.97,75z M41,62
	c0,4.96,4.04,9,9,9s9-4.04,9-9s-4.04-9-9-9S41,57.04,41,62z M24,59c-3.86,0-7,3.14-7,7s3.14,7,7,7s7-3.14,7-7S27.86,59,24,59z
	 M76,59c-3.86,0-7,3.14-7,7s3.14,7,7,7s7-3.14,7-7S79.86,59,76,59z M36.28,43.95c1.08-1.26,0.93-3.15-0.33-4.23L24.61,30l11.34-9.72
	c1.26-1.08,1.4-2.97,0.33-4.23c-1.08-1.26-2.97-1.41-4.23-0.33l-14,12C17.38,28.29,17,29.12,17,30s0.38,1.71,1.05,2.28l14,12
	C32.61,44.76,33.31,45,34,45C34.84,45,35.68,44.64,36.28,43.95z M83,30c0-0.88-0.38-1.71-1.05-2.28l-14-12
	c-1.26-1.08-3.15-0.93-4.23,0.33c-1.08,1.26-0.93,3.15,0.33,4.23L75.39,30l-11.34,9.72c-1.26,1.08-1.4,2.97-0.33,4.23
	C64.32,44.64,65.16,45,66,45c0.69,0,1.39-0.24,1.95-0.72l14-12C82.62,31.71,83,30.88,83,30z M40.66,48.68C41.09,48.9,41.55,49,42,49
	c1.1,0,2.16-0.61,2.69-1.66l16-32c0.74-1.48,0.14-3.28-1.34-4.03c-1.48-0.74-3.28-0.14-4.02,1.34l-16,32
	C38.58,46.14,39.18,47.94,40.66,48.68z"></path>
</svg>
