<svg version="1.2" xmlns="http://www.w3.org/2000/svg" viewBox="0 0 2051 632" width="2051" height="432">
	<style>
		.s0 { fill: #383535 } 
	</style>
	<path id="Layer copy 3" class="s0" d="m1766.32 232.14l18.05 0.65 12.75 0.07 20.92-0.62c-12.17 27.46-28.22 61.33-38.86 88.79l-19.56-0.25-13 0.06-19.43 0.26c12.46-24.82 27.49-62.51 39.13-88.96z"/>
	<path id="Layer copy" class="s0" d="m1271.36 354.86l6.63 16.81 5.03 11.71 8.94 18.92c-30.03-0.16-67.5-1.33-96.92-0.09l-7.6-18.03-5.25-11.89-8.01-17.7c27.73 1.49 68.29 0.19 97.18 0.27z"/>
	<path class="s0" d="m1114.41 225.23c16.16 0.88 34.33 0.46 50.48-0.06-1.54 36.71 0.52 74.5-0.3 111.33-0.49 21.85-0.66 44.3-0.2 66.12-15.39-0.74-34.92-0.66-50.22 0.03 1.29-21.95 0.61-48.81 0.61-71.03q0.2-53.2-0.37-106.39z"/>
	<path id="Layer copy 2" class="s0" d="m931.18 231.12c5.11 0.05 10.45-0.01 15.49 0.7 33.52-0.15 70.24-0.79 103.52 0.09 2.28-0.55 13.65-0.65 16.65-0.72q-9.25 19.38-18.14 38.94c-38.54-0.77-78.91-0.15-117.59-0.13z"/>
	<path class="s0" d="m1388.62 217.42c129.06-11.35 155.01 165.59 20.61 183.55-26.76 1.66-54.74-4.13-76.19-20.96-4.52-3.5-8.69-7.44-12.44-11.76-3.75-4.32-7.06-9-9.89-13.97-2.83-4.97-5.16-10.21-6.95-15.64-1.8-5.43-3.06-11.02-3.76-16.7-7.11-59.6 32.33-98.09 88.62-104.52zm-0.29 37.85c-29.83 5.7-49.34 34.57-43.5 64.38 5.84 29.81 34.8 49.18 64.57 43.2 29.58-5.94 48.8-34.67 42.99-64.28-5.8-29.61-34.43-48.97-64.06-43.3z"/>
	<path class="s0" d="m1497.22 229.05l37.92 0.03c5.09 10.88 12.55 32.39 17.28 44.46l34.21 87.11c13.88-42.78 27.68-89.4 42.29-131.5l38.46-0.02 52.05 157 3.33 10.83-33.17-0.16c-14.18-38.32-27.54-80.27-39.98-119.24-4.45 8.95-11.83 31.28-15.49 41.47q-3.45 9.72-6.95 19.43-3.49 9.7-7.03 19.39-3.54 9.69-7.13 19.36-3.59 9.67-7.22 19.33c-13.04 0.57-28.47 0.02-41.68-0.13-23.29-53.77-44.17-112.7-66.89-167.36z"/>
	<path class="s0" d="m274.4 236.87l1.92-0.02c40.76-0.47 84.93-3.33 116.6 27.66 31.7 31.03 31.47 91.37-0.36 122.42-29.23 28.51-65.26 27.76-103.12 27.74l-54.34-0.06c-1.48 0.15-1.85-0.19-3.24-0.85-1.93-5.53-0.97-26-0.82-32.37 14.03-16.34 36.01-38.89 51.19-54.21l-0.02 47.15c22.04 0.28 51.77 2.8 68.8-13.44 17.71-16.9 18.49-51.34 1.4-68.94-14.35-14.77-35.4-15.14-54.5-15.32-4.57-6.64-20.18-32.57-23.51-39.76z"/>
	<path class="s0" d="m595.58 231.11l51.57 0.06q5.57 10.85 11.1 21.71 5.53 10.87 11.02 21.76 5.49 10.89 10.94 21.79 5.45 10.91 10.86 21.84c15.2 29.97 31.35 60.6 45.99 90.75l-50.48-0.07c-4.41-7.97-8.79-16.59-12.83-24.77-25.32-51.16-53.48-101.64-78.17-153.07z"/>
	<path class="s0" d="m934.15 303.97l89.07 0.03 0.02 29.09-48.3-0.05 0.12 13.79-0.05 47-40.93-0.2c-0.42-29.4-0.15-60.21 0.07-89.66z"/>
	<path class="s0" d="m770.4 231.1l53.89 0.17c-4.88 10.04-13.03 23.72-18.57 33.73l-35.47 64.17c-17.6 0.52-36.96 0.08-54.68 0 18.89-30.53 36.38-66.54 54.83-98.07z"/>
	<path class="s0" d="m438.55 369.34h123.37c5.12 8.38 15.33 30.37 19.08 39.59-45.44 1.36-96.78 0.18-142.68 0.18q-0.14-19.88 0.23-39.77z"/>
	<path class="s0" d="m438.53 231.24l142.05-0.03c-3.35 8.07-8.77 18.4-12.7 26.42-1.96 4.16-4.39 8.62-6.52 12.75l-122.83-0.12z"/>
	<path class="s0" d="m438.51 299.21l105.43 0.05v38.7l-105.41-0.04c-0.29-12.46-0.03-26.17-0.02-38.71z"/>
</svg>